<mxfile modified="2019-10-21T14:11:30.689Z" host="test.draw.io" agent="Mozilla/5.0 (Macintosh; Intel Mac OS X 10_14_6) AppleWebKit/537.36 (KHTML, like Gecko) Chrome/77.0.3865.120 Safari/537.36" etag="V3teW48Wzmip-Ztzx_Ke" version="@DRAWIO-VERSION@" type="gitlab" pages="2">
  <diagram id="VbGbUipla008CxeSZOJQ" name="Page-1">
    <mxGraphModel dx="867" dy="464" grid="1" gridSize="10" guides="1" tooltips="1" connect="1" arrows="1" fold="1" page="1" pageScale="1" pageWidth="850" pageHeight="1100" math="1" shadow="0">
      <root>
        <mxCell id="0"/>
        <mxCell id="1" parent="0"/>
        <mxCell id="J5J7sOBJN_SNSv-nKwRe-2" value="" style="edgeStyle=orthogonalEdgeStyle;rounded=0;orthogonalLoop=1;jettySize=auto;html=1;" parent="1" source="PxQ6kvhh4_ctL7AA62js-1" target="J5J7sOBJN_SNSv-nKwRe-1" edge="1">
          <mxGeometry relative="1" as="geometry"/>
        </mxCell>
        <mxCell id="PxQ6kvhh4_ctL7AA62js-1" value="new label" style="rounded=0;whiteSpace=wrap;html=1;" parent="1" vertex="1">
          <mxGeometry x="20" y="20" width="120" height="60" as="geometry"/>
        </mxCell>
        <mxCell id="J5J7sOBJN_SNSv-nKwRe-1" value="test" style="rounded=0;whiteSpace=wrap;html=1;" parent="1" vertex="1">
          <mxGeometry x="250" y="20" width="120" height="60" as="geometry"/>
        </mxCell>
      </root>
    </mxGraphModel>
  </diagram>
  <diagram id="UXm3N8zAdDeakjRFu-a9" name="Page-2">
    <mxGraphModel dx="1209" dy="1285" grid="1" gridSize="10" guides="1" tooltips="1" connect="1" arrows="1" fold="1" page="1" pageScale="1" pageWidth="850" pageHeight="1100" math="0" shadow="0">
      <root>
        <mxCell id="14_Mb_wE_xqcZyIOXb95-0"/>
        <mxCell id="14_Mb_wE_xqcZyIOXb95-1" parent="14_Mb_wE_xqcZyIOXb95-0"/>
        <mxCell id="14_Mb_wE_xqcZyIOXb95-2" value="" style="edgeStyle=orthogonalEdgeStyle;rounded=0;orthogonalLoop=1;jettySize=auto;html=1;fillColor=#fff2cc;strokeColor=#d6b656;" parent="14_Mb_wE_xqcZyIOXb95-1" source="14_Mb_wE_xqcZyIOXb95-3" target="14_Mb_wE_xqcZyIOXb95-4" edge="1">
          <mxGeometry relative="1" as="geometry"/>
        </mxCell>
        <mxCell id="14_Mb_wE_xqcZyIOXb95-3" value="new label" style="rounded=0;whiteSpace=wrap;html=1;fillColor=#fff2cc;strokeColor=#d6b656;" parent="14_Mb_wE_xqcZyIOXb95-1" vertex="1">
          <mxGeometry x="20" y="20" width="120" height="60" as="geometry"/>
        </mxCell>
        <mxCell id="14_Mb_wE_xqcZyIOXb95-4" value="test" style="rounded=0;whiteSpace=wrap;html=1;fillColor=#fff2cc;strokeColor=#d6b656;" parent="14_Mb_wE_xqcZyIOXb95-1" vertex="1">
          <mxGeometry x="220" y="20" width="120" height="60" as="geometry"/>
        </mxCell>
      </root>
    </mxGraphModel>
  </diagram>
</mxfile>
